<svg xmlns="http://www.w3.org/2000/svg" viewBox="0 0 2480.000000 2144.000000" width="240" height="240" preserveAspectRatio="xMidYMid meet">
<g transform="translate(0.000000,2144.000000) scale(0.100000,-0.100000)"
fill="currentColor" >
<path d="M3502 20710 c-74 -59 -109 -70 -222 -70 -197 0 -240 -44 -240 -240 0
-132 10 -162 80 -236 56 -59 67 -83 81 -168 14 -85 27 -104 164 -239 73 -72
131 -138 140 -160 24 -57 22 -744 -2 -794 -19 -40 -62 -70 -113 -79 -113 -19
-130 -29 -265 -160 -146 -142 -150 -145 -259 -169 -88 -19 -108 -35 -345 -275
-117 -119 -121 -128 -121 -280 0 -85 -4 -131 -15 -157 -17 -41 -644 -672 -691
-696 -16 -8 -65 -22 -108 -32 -84 -18 -134 -56 -296 -225 -56 -58 -84 -73
-184 -95 -88 -19 -108 -35 -340 -270 -116 -118 -126 -139 -126 -284 0 -176 26
-215 160 -241 95 -18 99 -21 321 -241 112 -111 220 -208 239 -217 22 -10 82
-18 165 -22 146 -7 159 -12 248 -88 69 -58 111 -72 227 -72 116 0 158 14 227
72 89 76 102 81 248 88 151 8 163 12 236 75 84 73 99 78 244 85 151 8 163 12
236 75 84 73 99 78 244 85 151 8 163 12 236 75 84 73 99 78 244 85 151 8 163
12 236 75 90 78 97 80 249 80 169 0 153 9 367 -202 173 -170 193 -197 193
-268 0 -50 25 -100 77 -157 84 -91 83 -87 83 -401 0 -315 1 -318 77 -399 80
-85 83 -96 83 -321 0 -227 4 -241 77 -319 80 -85 83 -96 83 -321 0 -227 4
-241 77 -319 81 -86 83 -95 83 -328 0 -232 -2 -240 -83 -328 -52 -56 -77 -107
-77 -156 0 -47 -28 -103 -77 -157 -86 -93 -83 -70 -83 -557 0 -485 -2 -470 77
-554 80 -85 83 -96 83 -323 0 -227 3 -238 83 -324 49 -54 77 -110 77 -157 0
-49 25 -100 76 -155 61 -66 71 -88 85 -173 15 -89 24 -101 244 -320 238 -235
235 -231 235 -388 0 -144 7 -168 75 -239 76 -80 85 -105 85 -241 0 -144 7
-168 75 -239 82 -86 85 -96 85 -322 0 -227 4 -241 77 -319 80 -85 83 -96 83
-321 0 -227 4 -241 77 -319 85 -91 83 -78 83 -481 0 -403 -1 -397 77 -479 85
-91 83 -78 83 -481 0 -403 -1 -397 77 -479 89 -95 83 -20 83 -961 0 -602 3
-843 11 -868 7 -19 36 -60 66 -91 88 -94 83 -48 83 -728 0 -679 5 -632 -83
-728 -52 -57 -77 -107 -77 -157 0 -63 -23 -101 -114 -188 -121 -117 -125 -119
-281 -127 -167 -9 -205 -26 -234 -103 -17 -45 -15 -719 3 -760 18 -43 53 -73
101 -86 56 -15 990 -15 1051 0 34 9 66 31 132 91 99 90 129 133 138 198 14
105 22 120 114 211 101 100 122 113 210 129 113 20 142 50 160 165 13 82 20
95 81 160 75 80 79 95 79 320 0 227 3 238 83 323 79 84 77 68 77 561 0 406 1
439 19 471 24 46 59 65 150 84 171 36 205 170 76 305 -82 86 -85 98 -85 324 0
227 -4 241 -77 319 -89 95 -83 30 -83 881 0 541 -3 764 -11 788 -7 19 -36 60
-66 91 -90 96 -83 0 -83 1128 0 983 0 1002 20 1040 40 78 0 74 775 80 759 6
709 1 796 75 98 84 70 79 484 85 407 6 393 4 476 75 100 87 40 79 724 85 671
6 630 1 716 75 92 79 89 79 324 86 233 6 238 8 316 74 96 83 80 79 404 86 320
6 315 5 396 74 100 86 48 80 649 80 603 0 547 7 654 -84 75 -63 109 -71 319
-71 198 0 219 -6 308 -80 62 -52 79 -61 147 -76 96 -21 119 -33 187 -94 47
-42 63 -50 132 -65 43 -10 91 -24 107 -32 31 -16 812 -792 839 -833 9 -14 21
-56 27 -94 16 -100 18 -102 288 -373 425 -425 405 -408 498 -428 100 -22 128
-37 184 -95 162 -169 212 -207 296 -225 108 -24 113 -27 254 -165 141 -136
150 -142 240 -160 80 -15 100 -25 172 -88 50 -44 67 -53 135 -68 97 -21 120
-32 188 -94 47 -42 63 -50 132 -65 96 -22 117 -32 188 -94 66 -58 109 -71 232
-71 119 0 152 -11 234 -80 62 -52 79 -61 147 -76 96 -21 119 -33 187 -94 47
-42 63 -50 132 -65 97 -22 120 -33 188 -95 47 -42 63 -50 132 -65 43 -10 91
-24 107 -32 16 -8 176 -162 356 -342 337 -336 350 -351 350 -426 0 -50 25
-100 79 -159 53 -60 81 -114 81 -162 0 -49 25 -100 77 -156 88 -96 83 -58 83
-648 0 -442 -2 -526 -15 -557 -9 -21 -71 -91 -147 -167 -157 -156 -158 -159
-158 -316 0 -135 -11 -170 -70 -225 -81 -75 -72 -124 41 -229 111 -103 98
-100 429 -106 262 -5 288 -7 324 -26 49 -25 76 -74 76 -137 0 -60 -9 -77 -81
-154 -77 -83 -81 -101 -77 -348 4 -237 -3 -220 140 -352 110 -102 113 -103
412 -103 287 0 316 5 391 71 71 62 96 75 175 89 113 20 142 50 160 165 13 82
20 95 81 160 86 91 79 -27 79 1353 0 899 -3 1238 -11 1263 -7 19 -36 60 -66
91 -87 93 -83 59 -83 639 0 355 -4 523 -11 550 -12 39 -105 141 -290 316 -83
79 -87 81 -165 98 -97 22 -114 30 -186 93 -50 44 -67 53 -135 68 -99 21 -127
36 -183 94 -162 169 -212 207 -296 225 -43 10 -92 24 -108 33 -31 15 -1452
1430 -1479 1472 -9 14 -21 56 -27 94 -15 96 -24 109 -169 254 -129 127 -151
161 -151 227 0 50 -25 100 -79 159 -53 60 -81 114 -81 162 0 49 -25 100 -77
156 -75 82 -83 105 -83 240 0 144 -7 168 -75 239 -85 89 -85 87 -85 402 0 315
-1 318 -77 399 -74 79 -83 105 -83 240 0 144 -7 168 -75 238 -61 65 -72 87
-86 174 -14 85 -28 105 -159 234 -140 139 -146 148 -160 236 -15 96 -25 111
-165 249 -73 72 -131 138 -140 160 -12 30 -15 96 -15 397 0 411 -3 395 83 488
52 57 77 107 77 157 0 66 22 99 153 229 160 161 166 174 167 323 0 222 -37
248 -350 241 -141 -3 -182 -7 -211 -21 -19 -10 -126 -107 -237 -217 -222 -219
-223 -220 -334 -244 -68 -15 -85 -24 -147 -76 -41 -34 -88 -64 -111 -70 -26
-7 -258 -10 -712 -8 -756 3 -686 -4 -787 83 -83 71 -69 69 -476 75 -414 6
-386 1 -484 85 -84 72 -61 69 -556 75 -504 6 -465 0 -564 85 -83 71 -69 69
-476 75 -414 6 -386 1 -484 85 -73 63 -85 67 -236 75 -145 7 -160 12 -244 85
-81 69 -76 68 -396 74 -324 7 -308 3 -404 86 -73 63 -85 67 -236 75 -146 7
-159 12 -248 88 -70 59 -111 72 -234 72 -119 0 -152 11 -234 80 -62 52 -79 61
-147 76 -95 21 -116 31 -187 93 -66 58 -109 71 -232 71 -119 0 -152 11 -234
80 -62 52 -79 61 -147 76 -96 21 -119 33 -187 94 -47 42 -63 50 -132 65 -97
22 -120 33 -188 95 -47 42 -63 50 -132 65 -95 21 -119 33 -184 91 -69 61 -84
66 -234 74 -146 7 -159 12 -248 88 -70 59 -111 72 -234 72 -119 0 -152 11
-234 80 -62 52 -79 61 -147 76 -42 9 -90 23 -105 31 -31 16 -654 632 -680 673
-9 14 -21 56 -27 94 -15 96 -24 109 -169 254 -129 127 -151 161 -151 227 0 50
-25 100 -76 156 -61 66 -71 88 -85 173 -14 85 -28 105 -159 234 -140 139 -146
148 -160 236 -16 100 -23 109 -239 324 -228 226 -226 224 -241 316 -6 38 -17
81 -25 97 -8 15 -392 405 -853 866 -461 461 -846 849 -855 863 -9 14 -21 56
-27 94 -18 116 -47 145 -160 166 -35 6 -78 19 -95 27 -16 9 -263 249 -547 534
-598 600 -543 561 -656 469z"/>
</g>
</svg>
